<?xml version="1.0" encoding="UTF-8"?>
<svg xmlns="http://www.w3.org/2000/svg" xmlns:xlink="http://www.w3.org/1999/xlink" width="140px" height="140px" viewBox="0 0 140 140" version="1.1">
<g id="surface1">
<path style=" stroke:none;fill-rule:nonzero;fill:rgb(0%,0%,0%);fill-opacity:1;" d="M 0.375 70.015625 L 0.375 140.027344 L 139.625 140.027344 L 139.625 0 L 0.375 0 Z M 123.804688 12.988281 C 123.847656 13.148438 117.738281 21.433594 103.8125 40.09375 C 71.542969 83.320312 74.167969 79.851562 73.429688 80.359375 C 71.164062 81.898438 68.214844 81.625 66.332031 79.691406 C 65.855469 79.199219 20.90625 18.675781 17.359375 13.742188 C 17.097656 13.378906 16.921875 13.015625 16.957031 12.929688 C 17.007812 12.8125 31.902344 12.769531 70.390625 12.769531 C 117.917969 12.769531 123.753906 12.796875 123.804688 12.988281 Z M 27.789062 45.925781 C 37.417969 58.929688 45.304688 69.652344 45.304688 69.738281 C 45.304688 69.882812 10.839844 116.984375 10.351562 117.507812 C 10.253906 117.625 10.125 117.667969 10.058594 117.609375 C 9.9375 117.507812 9.898438 22.855469 10.015625 22.417969 C 10.058594 22.289062 10.125 22.203125 10.179688 22.230469 C 10.21875 22.257812 18.152344 32.910156 27.789062 45.925781 Z M 130.019531 70.378906 C 130.039062 100.210938 130.007812 117.390625 129.941406 117.539062 C 129.851562 117.710938 129.667969 117.539062 128.984375 116.59375 C 120.195312 104.710938 95.019531 70.160156 95.042969 70.015625 C 95.097656 69.667969 129.660156 23.375 129.832031 23.40625 C 129.972656 23.433594 129.996094 28.773438 130.019531 70.378906 Z M 55.964844 83.960938 C 58.035156 86.714844 60.089844 89.355469 60.535156 89.808594 C 63.394531 92.738281 66.953125 94.175781 70.851562 93.984375 C 73.371094 93.871094 75.570312 93.128906 77.648438 91.722656 C 79.625 90.375 80.246094 89.691406 84.261719 84.277344 C 86.554688 81.1875 88.089844 79.214844 88.199219 79.257812 C 88.429688 79.332031 123.207031 126.839844 123.164062 127.027344 C 123.132812 127.144531 108.226562 127.1875 70.042969 127.1875 C 21.773438 127.1875 16.964844 127.171875 16.964844 126.953125 C 16.964844 126.707031 51.921875 78.9375 52.105469 78.9375 C 52.171875 78.9375 53.898438 81.203125 55.964844 83.960938 Z M 55.964844 83.960938 "/>
</g>
</svg>
