<svg width="129" height="129" viewBox="0 0 129 129" fill="none" xmlns="http://www.w3.org/2000/svg">
<circle cx="64.5" cy="64.5" r="64.5" fill="white"/>
<rect x="44" y="48" width="40" height="40" fill="#323088"/>
<rect x="51" y="60" width="27" height="8" fill="#D9D9D9"/>
<rect x="41" y="74" width="10" height="21" fill="black"/>
<rect x="81" y="74" width="10" height="21" fill="black"/>
<path d="M98.8597 74.9746C99.3313 75.6557 100.224 75.7715 100.854 75.2333C101.484 74.695 101.612 73.7065 101.14 73.0254L98.8597 74.9746ZM80.8597 48.9746L98.8597 74.9746L101.14 73.0254L83.1403 47.0254L80.8597 48.9746Z" fill="black"/>
<path d="M26.8597 73.0254C26.3882 73.7065 26.5164 74.695 27.1462 75.2333C27.7759 75.7715 28.6687 75.6557 29.1403 74.9746L26.8597 73.0254ZM44.8597 47.0254L26.8597 73.0254L29.1403 74.9746L47.1403 48.9746L44.8597 47.0254Z" fill="black"/>
<rect x="55" y="29" width="19" height="19" fill="#090D7C"/>
<circle cx="64.5" cy="38.5" r="4.5" fill="#D9D9D9"/>
</svg>
